<mxfile host="app.diagrams.net" modified="2023-06-13T06:17:39.207Z" agent="Mozilla/5.0 (Macintosh; Intel Mac OS X 10_15_7) AppleWebKit/537.36 (KHTML, like Gecko) Chrome/114.0.0.0 Safari/537.36" etag="aymG_sUM-wMQtcBRtL6u" version="21.3.7" type="github">
  <diagram name="第 1 页" id="MQ6S0BElYBGsIQ4X_KJp">
    <mxGraphModel dx="1306" dy="836" grid="1" gridSize="10" guides="1" tooltips="1" connect="1" arrows="1" fold="1" page="1" pageScale="1" pageWidth="827" pageHeight="1169" math="0" shadow="0">
      <root>
        <mxCell id="0" />
        <mxCell id="1" parent="0" />
        <mxCell id="iSWSDquWVzybaqCLP1rn-10" value="" style="rounded=1;whiteSpace=wrap;html=1;fillColor=#d5e8d4;strokeColor=#82b366;" vertex="1" parent="1">
          <mxGeometry x="530" y="225" width="200" height="270" as="geometry" />
        </mxCell>
        <mxCell id="iSWSDquWVzybaqCLP1rn-8" value="" style="rounded=1;whiteSpace=wrap;html=1;fillColor=#dae8fc;strokeColor=#6c8ebf;" vertex="1" parent="1">
          <mxGeometry x="50" y="230" width="430" height="270" as="geometry" />
        </mxCell>
        <mxCell id="iSWSDquWVzybaqCLP1rn-3" value="" style="edgeStyle=orthogonalEdgeStyle;rounded=0;orthogonalLoop=1;jettySize=auto;html=1;" edge="1" parent="1" source="iSWSDquWVzybaqCLP1rn-1" target="iSWSDquWVzybaqCLP1rn-2">
          <mxGeometry relative="1" as="geometry" />
        </mxCell>
        <mxCell id="iSWSDquWVzybaqCLP1rn-1" value="biz" style="rounded=0;whiteSpace=wrap;html=1;" vertex="1" parent="1">
          <mxGeometry x="70" y="330" width="120" height="60" as="geometry" />
        </mxCell>
        <mxCell id="iSWSDquWVzybaqCLP1rn-7" value="" style="edgeStyle=orthogonalEdgeStyle;rounded=0;orthogonalLoop=1;jettySize=auto;html=1;exitX=1;exitY=0.5;exitDx=0;exitDy=0;" edge="1" parent="1" source="iSWSDquWVzybaqCLP1rn-2" target="iSWSDquWVzybaqCLP1rn-6">
          <mxGeometry relative="1" as="geometry">
            <mxPoint x="470" y="355" as="sourcePoint" />
          </mxGeometry>
        </mxCell>
        <mxCell id="iSWSDquWVzybaqCLP1rn-17" style="edgeStyle=orthogonalEdgeStyle;rounded=0;orthogonalLoop=1;jettySize=auto;html=1;" edge="1" parent="1" source="iSWSDquWVzybaqCLP1rn-2" target="iSWSDquWVzybaqCLP1rn-4">
          <mxGeometry relative="1" as="geometry" />
        </mxCell>
        <mxCell id="iSWSDquWVzybaqCLP1rn-2" value="proxy" style="whiteSpace=wrap;html=1;rounded=0;" vertex="1" parent="1">
          <mxGeometry x="344" y="330" width="120" height="60" as="geometry" />
        </mxCell>
        <mxCell id="iSWSDquWVzybaqCLP1rn-4" value="arcus" style="whiteSpace=wrap;html=1;rounded=0;" vertex="1" parent="1">
          <mxGeometry x="570" y="245" width="120" height="60" as="geometry" />
        </mxCell>
        <mxCell id="iSWSDquWVzybaqCLP1rn-6" value="dtone" style="whiteSpace=wrap;html=1;rounded=0;" vertex="1" parent="1">
          <mxGeometry x="570" y="405" width="120" height="60" as="geometry" />
        </mxCell>
        <mxCell id="iSWSDquWVzybaqCLP1rn-9" value="钱包" style="text;html=1;strokeColor=none;fillColor=none;align=center;verticalAlign=middle;whiteSpace=wrap;rounded=0;" vertex="1" parent="1">
          <mxGeometry x="70" y="270" width="60" height="30" as="geometry" />
        </mxCell>
        <mxCell id="iSWSDquWVzybaqCLP1rn-11" value="外部vendor" style="text;html=1;strokeColor=none;fillColor=none;align=center;verticalAlign=middle;whiteSpace=wrap;rounded=0;" vertex="1" parent="1">
          <mxGeometry x="650" y="325" width="90" height="30" as="geometry" />
        </mxCell>
        <mxCell id="iSWSDquWVzybaqCLP1rn-12" value="请求履约" style="text;html=1;strokeColor=none;fillColor=none;align=center;verticalAlign=middle;whiteSpace=wrap;rounded=0;" vertex="1" parent="1">
          <mxGeometry x="220" y="330" width="60" height="30" as="geometry" />
        </mxCell>
        <mxCell id="iSWSDquWVzybaqCLP1rn-13" value="请求履约" style="text;html=1;strokeColor=none;fillColor=none;align=center;verticalAlign=middle;whiteSpace=wrap;rounded=0;" vertex="1" parent="1">
          <mxGeometry x="510" y="325" width="60" height="30" as="geometry" />
        </mxCell>
        <mxCell id="iSWSDquWVzybaqCLP1rn-14" value="履约失败返回错误码" style="text;html=1;strokeColor=none;fillColor=none;align=center;verticalAlign=middle;whiteSpace=wrap;rounded=0;" vertex="1" parent="1">
          <mxGeometry x="485" y="370" width="110" height="30" as="geometry" />
        </mxCell>
        <mxCell id="iSWSDquWVzybaqCLP1rn-15" value="映射后的错误码返回biz" style="text;html=1;strokeColor=none;fillColor=none;align=center;verticalAlign=middle;whiteSpace=wrap;rounded=0;" vertex="1" parent="1">
          <mxGeometry x="190" y="370" width="130" height="30" as="geometry" />
        </mxCell>
      </root>
    </mxGraphModel>
  </diagram>
</mxfile>
